<svg width="28" height="28" viewBox="0 0 28 28" fill="none" xmlns="http://www.w3.org/2000/svg">
<path d="M14 0.339172C12.1615 0.339172 10.341 0.701293 8.64243 1.40486C6.94387 2.10842 5.40053 3.13966 4.1005 4.43968C1.475 7.06519 0 10.6261 0 14.3392C0 20.5272 4.018 25.7772 9.576 27.6392C10.276 27.7512 10.5 27.3172 10.5 26.9392V24.5732C6.622 25.4132 5.796 22.6972 5.796 22.6972C5.152 21.0732 4.242 20.6392 4.242 20.6392C2.968 19.7712 4.34 19.7992 4.34 19.7992C5.74 19.8972 6.482 21.2412 6.482 21.2412C7.7 23.3692 9.758 22.7392 10.556 22.4032C10.682 21.4932 11.046 20.8772 11.438 20.5272C8.33 20.1772 5.068 18.9732 5.068 13.6392C5.068 12.0852 5.6 10.8392 6.51 9.84517C6.37 9.49517 5.88 8.03917 6.65 6.14917C6.65 6.14917 7.826 5.77117 10.5 7.57717C11.606 7.26917 12.81 7.11517 14 7.11517C15.19 7.11517 16.394 7.26917 17.5 7.57717C20.174 5.77117 21.35 6.14917 21.35 6.14917C22.12 8.03917 21.63 9.49517 21.49 9.84517C22.4 10.8392 22.932 12.0852 22.932 13.6392C22.932 18.9872 19.656 20.1632 16.534 20.5132C17.038 20.9472 17.5 21.8012 17.5 23.1032V26.9392C17.5 27.3172 17.724 27.7652 18.438 27.6392C23.996 25.7632 28 20.5272 28 14.3392C28 12.5007 27.6379 10.6802 26.9343 8.9816C26.2307 7.28305 25.1995 5.7397 23.8995 4.43968C22.5995 3.13966 21.0561 2.10842 19.3576 1.40486C17.659 0.701293 15.8385 0.339172 14 0.339172Z" fill="#797B88"/>
</svg>
