<svg width="28" height="24" viewBox="0 0 28 24" fill="none" xmlns="http://www.w3.org/2000/svg">
<path d="M28 3.30022C26.9694 3.76867 25.8585 4.07651 24.7075 4.22374C25.8853 3.51437 26.7954 2.39008 27.2237 1.03827C26.1128 1.70748 24.8815 2.17593 23.5832 2.44362C22.5258 1.29257 21.0402 0.623352 19.3537 0.623352C16.2084 0.623352 13.6386 3.19314 13.6386 6.36523C13.6386 6.82029 13.6922 7.26198 13.7859 7.67689C9.02103 7.43597 4.7782 5.14725 1.95411 1.68071C1.45889 2.52393 1.17782 3.51437 1.17782 4.55834C1.17782 6.55261 2.18164 8.31934 3.73423 9.32316C2.78394 9.32316 1.90057 9.05548 1.12428 8.65395V8.6941C1.12428 11.478 3.10516 13.8069 5.72849 14.3289C4.88625 14.5594 4.00204 14.5915 3.14532 14.4226C3.50884 15.5636 4.2208 16.5619 5.18109 17.2774C6.14139 17.9928 7.30175 18.3893 8.49904 18.4111C6.46949 20.0178 3.95372 20.8863 1.3652 20.8738C0.910134 20.8738 0.455067 20.8471 0 20.7935C2.54302 22.4264 5.56788 23.3767 8.80688 23.3767C19.3537 23.3767 25.1491 14.6234 25.1491 7.03444C25.1491 6.78014 25.1491 6.53922 25.1358 6.28492C26.26 5.48186 27.2237 4.46465 28 3.30022Z" fill="#797B88"/>
</svg>
